<svg xmlns="http://www.w3.org/2000/svg" width="320" height="200" version="1.1">
<!-- Generator: guff 0.1.0 -->
<rect x="0" y="0" width="320" height="200"
    fill="black" stroke-width="2" stroke="black" />
<line x1="0" y1="0" x2="0" y2="200" stroke="lightgray" stroke-width="2" />
<line x1="106" y1="193" x2="106" y2="205" stroke="lightgray" stroke-width="1" />
<line x1="212" y1="193" x2="212" y2="205" stroke="lightgray" stroke-width="1" />
<line x1="318" y1="193" x2="318" y2="205" stroke="lightgray" stroke-width="1" />
<line x1="0" y1="199" x2="320" y2="199" stroke="lightgray" stroke-width="2" />
<line x1="0" y1="172" x2="6" y2="172" stroke="lightgray" stroke-width="1" />
<line x1="0" y1="145" x2="6" y2="145" stroke="lightgray" stroke-width="1" />
<line x1="0" y1="118" x2="6" y2="118" stroke="lightgray" stroke-width="1" />
<line x1="0" y1="91" x2="6" y2="91" stroke="lightgray" stroke-width="1" />
<line x1="0" y1="64" x2="6" y2="64" stroke="lightgray" stroke-width="1" />
<line x1="0" y1="37" x2="6" y2="37" stroke="lightgray" stroke-width="1" />
<line x1="0" y1="10" x2="6" y2="10" stroke="lightgray" stroke-width="1" />
<polyline points="
    0,1
    21,67
    42,69
    64,85
    85,88
    106,89
    127,96
    148,118
    170,128
    191,156
    212,160
    233,164
    254,173
    276,179
    297,191
    318,192
" stroke="#377eb8" stroke-width="2" fill="none" />
<line x1="0" y1="39" x2="318" y2="205" stroke="#377eb8" stroke-width="2" stroke-dasharray="2,5" />
</svg>
