<svg xmlns="http://www.w3.org/2000/svg" width="320" height="200" version="1.1">
<!-- Generator: guff 0.1.0 -->
<rect x="0" y="0" width="320" height="200"
    fill="black" stroke-width="2" stroke="black" />
<line x1="127" y1="0" x2="127" y2="200" stroke="lightgray" stroke-width="2" />
<line x1="191" y1="105" x2="191" y2="117" stroke="lightgray" stroke-width="1" />
<line x1="255" y1="105" x2="255" y2="117" stroke="lightgray" stroke-width="1" />
<line x1="319" y1="105" x2="319" y2="117" stroke="lightgray" stroke-width="1" />
<line x1="63" y1="105" x2="63" y2="117" stroke="lightgray" stroke-width="1" />
<line x1="0" y1="111" x2="320" y2="111" stroke="lightgray" stroke-width="2" />
<line x1="121" y1="133" x2="133" y2="133" stroke="lightgray" stroke-width="1" />
<line x1="121" y1="155" x2="133" y2="155" stroke="lightgray" stroke-width="1" />
<line x1="121" y1="177" x2="133" y2="177" stroke="lightgray" stroke-width="1" />
<line x1="121" y1="199" x2="133" y2="199" stroke="lightgray" stroke-width="1" />
<line x1="121" y1="88" x2="133" y2="88" stroke="lightgray" stroke-width="1" />
<line x1="121" y1="65" x2="133" y2="65" stroke="lightgray" stroke-width="1" />
<line x1="121" y1="42" x2="133" y2="42" stroke="lightgray" stroke-width="1" />
<line x1="121" y1="19" x2="133" y2="19" stroke="lightgray" stroke-width="1" />
<circle cx="191" cy="89" r="3" stroke="#377eb8" />
<circle cx="191" cy="67" r="4" stroke="#377eb8" />
<circle cx="0" cy="177" r="5" stroke="#377eb8" />
<circle cx="318" cy="199" r="4" stroke="#377eb8" />
<circle cx="0" cy="177" r="5" stroke="#377eb8" />
<circle cx="254" cy="23" r="3" stroke="#377eb8" />
<circle cx="318" cy="199" r="4" stroke="#377eb8" />
<circle cx="191" cy="67" r="4" stroke="#377eb8" />
<circle cx="318" cy="1" r="3" stroke="#377eb8" />
<circle cx="0" cy="177" r="5" stroke="#377eb8" />
</svg>
